<svg id="svg-source" height="0" version="1.1" 
  xmlns="http://www.w3.org/2000/svg" style="position:absolute; margin-left: -100%" 
  xmlns:xlink="http://www.w3.org/1999/xlink">
  <g id="ebay" data-iconmelon="Flat Social Icons:354f7b29e660310903078904a9b5e5e1">
    <g>
      <path d="M13.604,14.422c-1.639,0.042-1.58,1.704-1.58,1.704s-0.026,1.728,1.583,1.706
		c1.608-0.02,1.582-1.67,1.582-1.67S15.242,14.379,13.604,14.422z"></path>
      <path d="M8.484,14.405c-1.458,0.001-1.53,1.292-1.53,1.292h2.981C9.936,15.697,9.936,14.405,8.484,14.405z"></path>
      <path d="M18.809,16.232c0,0-1.64-0.052-1.575,0.82c0.06,0.818,1.083,0.817,1.083,0.817
		c1.837,0.023,1.649-1.639,1.649-1.639L18.809,16.232z"></path>
      <path d="M16,0C7.162,0,0,7.164,0,16s7.162,16,16,16c8.837,0,16-7.164,16-16S24.837,0,16,0z M13.818,18.521
		c-1.352,0-1.814-0.762-1.814-0.762l-0.043,0.604h-0.992c0.039-0.414,0.045-1.042,0.045-1.042l-0.003-1.019
		c-0.003,0.057-0.007,0.093-0.007,0.093H6.92c0,0,0.057,1.428,1.531,1.455c1.146,0.021,1.354-0.775,1.354-0.775l1.06-0.002
		c0,0-0.113,1.447-2.417,1.447c-2.682,0-2.558-2.307-2.558-2.307c-0.013-0.512,0.085-2.484,2.619-2.483
		c2.136,0,2.465,1.543,2.501,2.28l-0.014-4.074h1.021v2.548c0,0,0.549-0.762,1.822-0.754c1.274,0.007,2.456,0.868,2.428,2.413
		C16.238,17.688,15.171,18.521,13.818,18.521z M20.068,18.355l-0.043-0.63c-0.4,0.507-0.939,0.79-1.885,0.796
		c-0.944,0.005-2.152-0.417-1.945-1.77c0.175-1.139,2.043-1.197,2.577-1.2c0.296-0.001,1.184-0.004,1.184-0.004
		c0.005-0.625-0.184-1.133-1.219-1.152c-1.095-0.021-1.179,0.698-1.179,0.698H16.48c0.219-1.569,2.328-1.377,2.328-1.377
		c2.199,0.091,2.15,1.318,2.178,1.827c0.022,0.438,0.002,1.061,0,1.758c-0.003,0.696,0.021,1.049,0.021,1.049L20.068,18.355z
		 M23.018,20.062h-1.146l0.907-1.712l-2.352-4.449h1.185l1.733,3.456l1.736-3.456h1.071L23.018,20.062z"></path>
    </g>
  </g>
  <g id="b" data-iconmelon="Flat Social Icons:25bf6c56b9833a92c1d58e3f602437d2">
    <path d="M16,0C7.162,0,0,7.164,0,16s7.162,16,16,16s16-7.164,16-16S24.838,0,16,0z M17.757,23.972h-3.531
	C10.842,23.972,8,21.135,8,17.75V9.444C8,8.655,8.654,8,9.444,8c0.787,0,1.443,0.657,1.443,1.444c0,2.768,0.004,5.537,0.004,8.306
	c0,1.822,1.512,3.334,3.334,3.334h3.531c1.815,0,3.335-1.52,3.335-3.334c0-1.823-1.513-3.335-3.335-3.335h-3.809
	c-0.79,0-1.444-0.654-1.444-1.444c0-0.787,0.657-1.444,1.444-1.444h3.809c3.402,0,6.223,2.821,6.223,6.223
	C23.98,21.138,21.146,23.972,17.757,23.972z"></path>
  </g>
  <g id="soundcloud" data-iconmelon="Flat Social Icons:6c8f53194176bd185d19145650a30c64">
    <path d="M16,0C7.162,0,0,7.164,0,16s7.162,16,16,16c8.837,0,16-7.164,16-16S24.837,0,16,0z M8.244,17.997
	C8.24,18.034,8.213,18.06,8.181,18.06c-0.034,0-0.06-0.026-0.063-0.062L8,17.123l0.117-0.888c0.004-0.037,0.029-0.063,0.063-0.063
	c0.032,0,0.06,0.025,0.063,0.062l0.14,0.889L8.244,17.997z M8.839,18.528c-0.005,0.038-0.032,0.064-0.067,0.064
	c-0.033,0-0.061-0.026-0.066-0.064l-0.156-1.405l0.156-1.438c0.006-0.036,0.033-0.064,0.066-0.064c0.035,0,0.062,0.027,0.068,0.064
	l0.178,1.438L8.839,18.528z M9.48,18.768c-0.004,0.044-0.038,0.077-0.079,0.077c-0.043,0-0.077-0.033-0.08-0.078l-0.149-1.644
	c0,0,0.149-1.703,0.149-1.705c0.003-0.045,0.037-0.078,0.08-0.078c0.041,0,0.075,0.033,0.079,0.078l0.17,1.705L9.48,18.768z
	 M10.129,18.818c-0.005,0.053-0.045,0.092-0.094,0.092c-0.05,0-0.09-0.039-0.095-0.092L9.8,17.123l0.141-1.752
	c0.005-0.053,0.045-0.092,0.095-0.092c0.049,0,0.089,0.039,0.094,0.092l0.159,1.752L10.129,18.818z M10.781,18.832
	c-0.005,0.061-0.051,0.105-0.107,0.105c-0.058,0-0.104-0.045-0.107-0.105l-0.134-1.709l0.134-1.625
	c0.003-0.06,0.05-0.105,0.107-0.105c0.057,0,0.103,0.045,0.107,0.105l0.151,1.625L10.781,18.832z M11.438,18.833L11.438,18.833
	c-0.003,0.066-0.057,0.12-0.121,0.12s-0.117-0.054-0.12-0.12l-0.125-1.708l0.125-2.645c0.003-0.067,0.056-0.119,0.12-0.119
	s0.118,0.052,0.121,0.119l0.143,2.645L11.438,18.833z M12.102,18.823L12.102,18.823c-0.004,0.073-0.062,0.132-0.135,0.132
	s-0.132-0.059-0.135-0.133l-0.117-1.697l0.117-3.249c0.003-0.074,0.062-0.132,0.135-0.132s0.131,0.058,0.135,0.132l0.132,3.249
	L12.102,18.823z M12.77,18.806L12.77,18.806c-0.004,0.082-0.068,0.146-0.148,0.146c-0.081,0-0.146-0.063-0.148-0.146l-0.109-1.681
	l0.109-3.52c0.003-0.082,0.067-0.146,0.148-0.146c0.08,0,0.145,0.064,0.148,0.146l0.123,3.52L12.77,18.806z M13.442,18.796
	L13.442,18.796c-0.003,0.089-0.073,0.159-0.162,0.159c-0.088,0-0.159-0.07-0.161-0.159l-0.102-1.671l0.102-3.638
	c0.002-0.091,0.073-0.161,0.161-0.161c0.089,0,0.159,0.07,0.162,0.161l0.114,3.638L13.442,18.796z M14.12,18.78L14.12,18.78
	c-0.002,0.097-0.079,0.175-0.175,0.175c-0.097,0-0.174-0.078-0.176-0.175l-0.093-1.655l0.093-3.545
	c0.002-0.098,0.079-0.175,0.176-0.175c0.096,0,0.173,0.077,0.175,0.175l0.104,3.545L14.12,18.78z M14.805,18.77v-0.002
	c-0.003,0.106-0.085,0.188-0.19,0.188c-0.104,0-0.187-0.082-0.188-0.187l-0.085-1.643l0.085-3.417
	c0.002-0.106,0.085-0.188,0.188-0.188c0.105,0,0.188,0.082,0.19,0.188l0.095,3.418L14.805,18.77z M15.493,18.759L15.493,18.759
	c-0.002,0.11-0.094,0.201-0.203,0.201c-0.11,0-0.201-0.091-0.203-0.201c0,0-0.077-1.631-0.077-1.634l0.077-4.064
	c0.002-0.11,0.093-0.201,0.203-0.201c0.109,0,0.201,0.091,0.203,0.201l0.085,4.066L15.493,18.759z M16.178,18.736v-0.002
	c-0.001,0.118-0.099,0.216-0.217,0.216c-0.117,0-0.215-0.098-0.217-0.214l-0.088-1.609l0.088-4.434
	c0.002-0.119,0.1-0.216,0.217-0.216c0.118,0,0.216,0.097,0.217,0.215l0.098,4.435L16.178,18.736z M22.032,18.964
	c-0.035,0-5.45-0.002-5.455-0.002c-0.118-0.013-0.212-0.113-0.214-0.233v-6.245c0.002-0.116,0.042-0.175,0.189-0.231
	c0.383-0.148,0.816-0.235,1.26-0.235c1.814,0,3.301,1.391,3.458,3.164c0.234-0.098,0.491-0.152,0.762-0.152
	c1.087,0,1.968,0.881,1.968,1.968C24,18.084,23.119,18.964,22.032,18.964z"></path>
  </g>
  <g id="windows" data-iconmelon="Flat Social Icons:3941bd36575288e9e4eb130100d5be0c">
    <path d="M16,0C7.162,0,0,7.164,0,16s7.162,16,16,16c8.837,0,16-7.164,16-16S24.837,0,16,0z M15.373,10.123
	l8.022-1.171v7.04l-8.022,0.064V10.123z M8.597,21.748l0-5.049l6.043,0.04l0.005,5.841L8.597,21.748z M8.598,16.102l-0.006-5.047
	l6.05-0.824l0.003,5.836L8.598,16.102z M23.395,23.803l-8.022-1.133l-0.011-5.889l8.036,0.013L23.395,23.803z"></path>
  </g>
  <g id="vimeo" data-iconmelon="Flat Social Icons:83b39399dd43284c7bd751c96417d026">
    <path d="M16,0.001C7.165,0.001,0,7.164,0,16s7.165,15.999,16,15.999c8.836,0,16-7.163,16-15.999
	S24.836,0.001,16,0.001z M23.99,12.66c-0.07,1.555-1.159,3.682-3.26,6.381c-2.175,2.822-4.018,4.232-5.524,4.232
	c-0.932,0-1.721-0.858-2.365-2.58c-0.432-1.579-0.861-3.158-1.292-4.734c-0.48-1.721-0.994-2.582-1.542-2.582
	c-0.12,0-0.537,0.251-1.255,0.755L8,13.161c0.788-0.69,1.565-1.385,2.332-2.077c1.05-0.91,1.839-1.386,2.366-1.436
	c1.241-0.121,2.007,0.729,2.296,2.545c0.308,1.961,0.524,3.18,0.644,3.659c0.359,1.625,0.752,2.436,1.183,2.436
	c0.333,0,0.836-0.524,1.505-1.575c0.67-1.053,1.027-1.853,1.076-2.404c0.096-0.908-0.262-1.36-1.076-1.36
	c-0.382,0-0.777,0.081-1.183,0.251c0.79-2.559,2.296-3.802,4.519-3.729C23.31,9.517,24.087,10.582,23.99,12.66z"></path>
  </g>
  <g id="google-plus" data-iconmelon="Flat Social Icons:3769f7aef24d6a2de99b5c893b5d0bdb">
    <g>
      <path d="M15.765,11.719c-0.22-1.677-1.434-3.021-2.71-3.06s-2.133,1.244-1.912,2.922
		c0.22,1.676,1.434,3.065,2.71,3.104C15.129,14.723,15.985,13.395,15.765,11.719z"></path>
      <path d="M16,0C7.164,0,0,7.164,0,16s7.164,16,16,16s16-7.164,16-16S24.837,0,16,0z M13.363,23.958
		c-2.751,0-5.073-1.119-5.073-2.909c0-1.817,2.118-3.57,4.87-3.57c0.299,0,0.574-0.008,0.859-0.008
		c-0.376-0.366-0.675-0.815-0.675-1.369c0-0.327,0.105-0.646,0.252-0.925c-0.149,0.01-0.302,0.013-0.459,0.013
		c-2.26,0-3.774-1.607-3.774-3.6c0-1.949,2.091-3.632,4.312-3.632h4.956l-1.109,0.801h-1.571c1.042,0.401,1.598,1.616,1.598,2.862
		c0,1.047-0.581,1.947-1.4,2.588c-0.799,0.624-0.951,0.885-0.951,1.418c0,0.453,0.855,1.224,1.304,1.541
		c1.31,0.925,1.733,1.785,1.733,3.22C18.233,22.178,16.5,23.958,13.363,23.958z M23.709,16.384H21.78v1.93h-1.552v-1.93h-1.929
		v-1.553h1.929v-1.929h1.552v1.929h1.929V16.384z"></path>
      <path d="M14.917,18.137c-0.375-0.121-0.79-0.193-1.233-0.197c-1.902-0.021-3.606,1.159-3.606,2.577
		c0,1.445,1.374,2.648,3.276,2.648c2.674,0,3.605-1.129,3.605-2.575c0-0.175-0.021-0.345-0.061-0.511
		C16.689,19.261,15.948,18.855,14.917,18.137z"></path>
    </g>
  </g>
  <g id="android" data-iconmelon="Flat Social Icons:9afbe295969488fec44af206c92c8225">
    <g>
      <circle cx="18.115" cy="10.789" r="0.464"></circle>
      <circle cx="14.399" cy="10.789" r="0.464"></circle>
      <path d="M16,0C7.162,0,0,7.164,0,16s7.162,16,16,16c8.837,0,16-7.164,16-16S24.837,0,16,0z M11.303,18.014
		c0,0.513-0.416,0.93-0.929,0.93c-0.514,0-0.93-0.417-0.93-0.93v-3.975c0-0.512,0.416-0.928,0.93-0.928
		c0.513,0,0.929,0.416,0.929,0.928V18.014z M20.593,13.883v0.631v5.41c0,0.541-0.439,0.98-0.98,0.98h-0.708
		c0.023,0.082,0.037,0.169,0.037,0.259v0.052v0.309v1.6c0,0.514-0.416,0.93-0.93,0.93c-0.513,0-0.929-0.416-0.929-0.93v-1.6v-0.309
		v-0.052c0-0.09,0.013-0.177,0.037-0.259h-1.726c0.023,0.082,0.038,0.169,0.038,0.259v0.052v0.309v1.6
		c0,0.514-0.417,0.93-0.931,0.93c-0.512,0-0.928-0.416-0.928-0.93v-1.6v-0.309v-0.052c0-0.09,0.013-0.177,0.036-0.259h-0.707
		c-0.541,0-0.981-0.439-0.981-0.98v-5.41v-0.631v-0.771h0.067h8.536h0.067V13.883z M11.922,12.492c0-1.328,0.89-2.487,2.204-3.1
		l-0.175-0.262l-0.173-0.258l-0.386-0.579c-0.047-0.071-0.027-0.167,0.043-0.215c0.072-0.048,0.168-0.027,0.215,0.043l0.415,0.621
		l0.174,0.261l0.176,0.265c0.56-0.217,1.185-0.339,1.843-0.339S17.54,9.052,18.1,9.269l0.176-0.265l0.175-0.261l0.414-0.621
		c0.047-0.071,0.144-0.091,0.214-0.043c0.072,0.048,0.092,0.144,0.044,0.215l-0.386,0.579l-0.173,0.258L18.39,9.393
		c1.313,0.612,2.203,1.771,2.203,3.1H11.922z M23.07,18.014c0,0.513-0.416,0.93-0.929,0.93c-0.514,0-0.93-0.417-0.93-0.93v-3.975
		c0-0.512,0.416-0.928,0.93-0.928c0.513,0,0.929,0.416,0.929,0.928V18.014z"></path>
    </g>
  </g>
  <g id="skype" data-iconmelon="Flat Social Icons:13ef86601b5a3b71b5cc4961921a89c3">
    <g>
      <path d="M19.363,15.777c-0.359-0.234-0.797-0.434-1.306-0.597c-0.501-0.16-1.069-0.309-1.688-0.441
		c-0.487-0.113-0.845-0.2-1.056-0.259c-0.207-0.057-0.413-0.138-0.614-0.238c-0.193-0.098-0.347-0.212-0.455-0.346
		c-0.103-0.125-0.152-0.271-0.152-0.444c0-0.283,0.154-0.522,0.474-0.731c0.329-0.217,0.775-0.325,1.321-0.325
		c0.59,0,1.019,0.097,1.275,0.294c0.264,0.2,0.494,0.484,0.685,0.847c0.164,0.283,0.313,0.479,0.455,0.606
		c0.154,0.135,0.374,0.205,0.657,0.205c0.311,0,0.575-0.11,0.784-0.328c0.208-0.216,0.312-0.463,0.312-0.737
		c0-0.282-0.08-0.575-0.238-0.87c-0.156-0.291-0.406-0.571-0.742-0.833c-0.333-0.261-0.758-0.472-1.261-0.628
		c-0.5-0.155-1.099-0.235-1.78-0.235c-0.853,0-1.606,0.119-2.239,0.354c-0.642,0.236-1.14,0.583-1.481,1.028
		c-0.344,0.447-0.519,0.968-0.519,1.543c0,0.606,0.167,1.119,0.494,1.531c0.323,0.402,0.764,0.726,1.312,0.959
		c0.535,0.228,1.208,0.428,2,0.597c0.582,0.123,1.053,0.241,1.4,0.348c0.332,0.104,0.605,0.255,0.813,0.45
		c0.198,0.186,0.295,0.422,0.295,0.724c0,0.38-0.185,0.692-0.565,0.952c-0.389,0.266-0.905,0.4-1.537,0.4
		c-0.458,0-0.831-0.066-1.108-0.197c-0.273-0.13-0.489-0.297-0.64-0.496c-0.156-0.205-0.303-0.467-0.438-0.777
		c-0.123-0.283-0.272-0.504-0.448-0.653c-0.184-0.154-0.409-0.233-0.672-0.233c-0.32,0-0.588,0.099-0.797,0.297
		c-0.21,0.198-0.317,0.44-0.317,0.719c0,0.449,0.164,0.914,0.487,1.38c0.321,0.464,0.744,0.838,1.257,1.115
		c0.718,0.381,1.637,0.573,2.732,0.573c0.913,0,1.716-0.141,2.385-0.42c0.676-0.281,1.198-0.677,1.551-1.177
		c0.354-0.499,0.533-1.073,0.533-1.701c0-0.526-0.104-0.979-0.31-1.345C20.019,16.319,19.729,16.015,19.363,15.777z"></path>
      <path d="M16,0C7.162,0,0,7.164,0,16s7.162,16,16,16c8.837,0,16-7.164,16-16S24.837,0,16,0z M19.575,24.114
		c-0.757,0-1.469-0.19-2.093-0.526c-0.453,0.085-0.919,0.129-1.396,0.129c-4.216,0-7.632-3.416-7.632-7.633
		c0-0.523,0.053-1.037,0.154-1.533C8.223,13.894,8,13.129,8,12.312c0-2.444,1.981-4.427,4.426-4.427c0.866,0,1.673,0.25,2.354,0.681
		c0.425-0.074,0.86-0.112,1.306-0.112c4.215,0,7.631,3.417,7.631,7.63c0,0.563-0.061,1.11-0.176,1.64
		C23.835,18.315,24,18.982,24,19.688C24,22.133,22.02,24.114,19.575,24.114z"></path>
    </g>
  </g>
  <g id="paypal" data-iconmelon="Flat Social Icons:9f15f1d1ce84593b915b560c621b1454">
    <g>
      <path d="M18.877,11.635c-0.28-0.198-0.628-0.317-1.026-0.317h-2.305l-0.077,0.317l-0.935,4.008h2.208
		c0.491,0,0.98-0.164,1.407-0.431c0.166-0.104,0.325-0.225,0.467-0.357c0.394-0.376,0.692-0.852,0.82-1.374
		C19.656,12.692,19.399,12.014,18.877,11.635z"></path>
      <path d="M16,0C7.162,0,0,7.164,0,16s7.162,16,16,16c8.837,0,16-7.164,16-16S24.837,0,16,0z M23.857,13.48
		c-0.285,1.277-0.871,2.342-1.664,3.175c-1.218,1.269-2.936,1.979-4.847,2.011c-0.041,0-0.082,0.006-0.118,0.006H13.86l-1.15,5.23
		H8.001l3.555-15.805h8.022c1.489,0,3.125,0.672,3.926,2.098c0.275,0.49,0.454,1.068,0.491,1.74
		C24.018,12.403,23.976,12.92,23.857,13.48z"></path>
    </g>
  </g>
  <g id="linkedin" data-iconmelon="Flat Social Icons:01c61d24a0a5319e0d4efae034e4824a">
    <path d="M16,0C7.163,0,0,7.164,0,16s7.163,16,16,16c8.838,0,16-7.164,16-16S24.838,0,16,0z M11.522,22.691H8.403
	v-9.98h3.119V22.691z M9.883,11.463H9.86c-1.129,0-1.86-0.764-1.86-1.73C8,8.748,8.754,8,9.905,8c1.15,0,1.857,0.746,1.88,1.73
	C11.785,10.697,11.056,11.463,9.883,11.463z M24,22.691h-3.537v-5.164c0-1.353-0.552-2.275-1.77-2.275
	c-0.93,0-1.446,0.623-1.688,1.224c-0.09,0.216-0.075,0.515-0.075,0.816v5.399h-3.504c0,0,0.046-9.148,0-9.98h3.504v1.566
	c0.207-0.685,1.326-1.662,3.112-1.662c2.216,0,3.958,1.436,3.958,4.527V22.691z"></path>
  </g>
  <g id="devianart" data-iconmelon="Flat Social Icons:46e814bc28b3e6125ba2e8850d754d53">
    <g>
      <path d="M10.458,17.99l2.447-0.659L11.81,15.09C9.75,16.428,10.458,17.99,10.458,17.99z"></path>
      <path d="M16,0C7.162,0,0,7.164,0,16s7.162,16,16,16c8.837,0,16-7.164,16-16S24.837,0,16,0z M16.667,18.058
		l-1.698-3.448c0.819-0.139,1.588-0.1,2.264,0.025l0.718,1.334l2.493-0.674c0,0-3.024-2.128-6.647-1.086l2.019,4.096l-7.344,2.114
		c0,0-2.133-4.688,2.681-6.675L10.22,11.84l2.283-0.259l0.771,1.563c0.046-0.007,0.087-0.019,0.133-0.026
		C21.34,11.769,24,15.945,24,15.945L16.667,18.058z"></path>
    </g>
  </g>
  <g id="pinterest" data-iconmelon="Flat Social Icons:c197dd39ae48df54f39a4cb022bbc80e">
    <path d="M16,0C7.164,0,0,7.164,0,16c0,8.837,7.164,16,16,16c8.837,0,16-7.163,16-16C32,7.164,24.837,0,16,0z
	 M16,23.957c-0.788,0-1.548-0.115-2.267-0.328c0.303-0.479,0.636-1.098,0.805-1.713c0.098-0.356,0.563-2.199,0.563-2.199
	c0.278,0.53,1.09,0.997,1.954,0.997c2.572,0,4.317-2.344,4.317-5.482c0-2.372-2.01-4.584-5.065-4.584
	c-3.801,0-5.717,2.727-5.717,4.999c0,1.375,0.521,2.599,1.639,3.057c0.183,0.074,0.347,0.002,0.4-0.201
	c0.037-0.141,0.125-0.496,0.163-0.642c0.053-0.201,0.033-0.271-0.115-0.446c-0.322-0.381-0.527-0.872-0.527-1.569
	c0-2.021,1.512-3.83,3.938-3.83c2.147,0,3.328,1.312,3.328,3.065c0,2.307-1.021,4.253-2.537,4.253c-0.837,0-1.463-0.692-1.262-1.542
	c0.24-1.012,0.707-2.106,0.707-2.838c0-0.654-0.352-1.201-1.079-1.201c-0.855,0-1.543,0.885-1.543,2.071
	c0,0.755,0.255,1.266,0.255,1.266s-0.875,3.71-1.029,4.358c-0.143,0.608-0.162,1.279-0.139,1.838C9.97,22.048,8,19.233,8,15.958
	c0-4.419,3.583-8,8-8s8,3.581,8,8C24,20.376,20.418,23.957,16,23.957z"></path>
  </g>
  <g id="instagram" data-iconmelon="Flat Social Icons:39303518cc8a9ce85bae15b2e6037450">
    <g>
      <polygon points="22.15,12.555 22.15,10.196 22.15,9.843 21.797,9.845 19.438,9.852 19.447,12.564 	"></polygon>
      <path d="M16.002,18.815c1.553,0,2.816-1.263,2.816-2.815c0-0.614-0.199-1.18-0.533-1.643
		c-0.512-0.709-1.344-1.174-2.283-1.174s-1.771,0.465-2.283,1.174c-0.333,0.463-0.533,1.029-0.533,1.643
		C13.186,17.553,14.449,18.815,16.002,18.815z"></path>
      <path d="M16,0C7.162,0,0,7.164,0,16s7.162,16,16,16c8.837,0,16-7.164,16-16S24.837,0,16,0z M24.002,14.357v6.55
		c0,1.705-1.388,3.092-3.093,3.092h-9.815c-1.705,0-3.092-1.387-3.092-3.092v-6.55v-3.265C8.002,9.387,9.389,8,11.094,8h9.815
		c1.705,0,3.093,1.387,3.093,3.092V14.357z"></path>
      <path d="M20.377,16c0,2.413-1.963,4.375-4.375,4.375S11.627,18.413,11.627,16c0-0.581,0.116-1.135,0.322-1.643
		H9.561v6.55c0,0.846,0.688,1.533,1.533,1.533h9.815c0.847,0,1.534-0.687,1.534-1.533v-6.55h-2.389
		C20.26,14.865,20.377,15.419,20.377,16z"></path>
    </g>
  </g>
  <g id="flickr" data-iconmelon="Flat Social Icons:cdef6e95be364ec0c79e47e1545c9a1d">
    <path d="M16.001,0.001C7.164,0.001,0,7.164,0,16s7.164,15.999,16.001,15.999C24.836,31.999,32,24.836,32,16
	S24.836,0.001,16.001,0.001z M11.523,19.523C9.577,19.523,8,17.945,8,16c0-1.945,1.577-3.523,3.522-3.523
	c1.95,0,3.526,1.578,3.526,3.523C15.048,17.945,13.472,19.523,11.523,19.523z M20.477,19.523c-1.947,0-3.524-1.577-3.524-3.523
	s1.577-3.524,3.524-3.524C22.422,12.476,24,14.054,24,16S22.422,19.523,20.477,19.523z"></path>
  </g>
  <g id="google-drive" data-iconmelon="Flat Social Icons:9b4967612fb8f447ddfb18c76b84ad3f">
    <path d="M16,0C7.162,0,0,7.164,0,16s7.162,16,16,16c8.837,0,16-7.164,16-16S24.837,0,16,0z M10.376,22.584l-0.133-0.229
	l-2.198-3.771L8,18.508l0.045-0.076L13.1,9.677l0.131-0.228l0.132,0.227l2.199,3.771l0.045,0.077l-0.045,0.077l-5.054,8.754
	L10.376,22.584z M23.869,19.162l-2.168,3.789l-0.044,0.076h-0.089H11.46h-0.264l0.131-0.229l2.167-3.789l0.044-0.076h0.089h10.109
	H24L23.869,19.162z M23.736,18.033l-4.365,0.019h-0.088l-0.045-0.077L14.184,9.22l-0.131-0.228l0.263-0.001l4.366-0.018h0.088
	l0.045,0.077l5.055,8.755L24,18.032L23.736,18.033z"></path>
  </g>
  <g id="behance" data-iconmelon="Flat Social Icons:2cfaa5f08f9411971991c5776a62bc9c">
    <g>
      <path d="M13.422,14.585c0.267-0.164,0.402-0.454,0.402-0.868c0-0.461-0.177-0.765-0.531-0.914
		c-0.306-0.103-0.695-0.154-1.168-0.154H9.972v2.182h2.404C12.804,14.831,13.153,14.748,13.422,14.585z"></path>
      <path d="M20.369,14.89c-0.489,0-0.871,0.139-1.141,0.417c-0.271,0.279-0.44,0.656-0.51,1.132h3.295
		c-0.035-0.507-0.206-0.892-0.509-1.156C21.198,15.021,20.82,14.89,20.369,14.89z"></path>
      <path d="M13.395,16.634c-0.235-0.107-0.565-0.164-0.988-0.167H9.972v2.637h2.4c0.429,0,0.764-0.058,1.001-0.174
		c0.435-0.216,0.65-0.627,0.65-1.234C14.024,17.18,13.815,16.827,13.395,16.634z"></path>
      <path d="M16,0C7.163,0,0,7.164,0,16c0,8.836,7.163,16,16,16s16-7.164,16-16C32,7.164,24.837,0,16,0z M18.224,11.393
		h4.237v1.23h-4.237V11.393z M15.669,19.412c-0.187,0.308-0.42,0.568-0.7,0.778c-0.315,0.242-0.686,0.407-1.116,0.497
		c-0.43,0.089-0.895,0.133-1.397,0.133H8v-9.888h4.778c1.206,0.018,2.06,0.369,2.563,1.054c0.301,0.421,0.453,0.923,0.453,1.509
		c0,0.603-0.151,1.089-0.456,1.456c-0.172,0.206-0.423,0.394-0.755,0.563c0.504,0.185,0.885,0.475,1.143,0.873
		c0.256,0.397,0.385,0.88,0.385,1.449C16.11,18.421,15.964,18.947,15.669,19.412z M23.998,17.701h-5.327
		c0.031,0.733,0.284,1.248,0.766,1.542c0.292,0.184,0.643,0.275,1.054,0.275c0.434,0,0.789-0.111,1.061-0.335
		c0.149-0.121,0.281-0.289,0.394-0.503h1.952c-0.051,0.433-0.289,0.874-0.708,1.323c-0.655,0.71-1.572,1.065-2.75,1.065
		c-0.974,0-1.833-0.299-2.575-0.899c-0.746-0.6-1.116-1.576-1.116-2.926c0-1.268,0.335-2.239,1.006-2.916
		c0.672-0.675,1.543-1.014,2.614-1.014c0.637,0,1.21,0.114,1.72,0.343c0.511,0.228,0.931,0.589,1.262,1.082
		c0.302,0.434,0.496,0.938,0.584,1.511C23.986,16.585,24.007,17.07,23.998,17.701z"></path>
    </g>
  </g>
  <g id="dribbble" data-iconmelon="Flat Social Icons:5b9fc91059c3a0d20aa278a84f56f35d">
    <g>
      <path d="M16.473,16.053c0.09-0.029,0.178-0.056,0.269-0.082c-0.171-0.389-0.358-0.778-0.554-1.161
		c-3.518,1.052-6.895,0.976-7.015,0.974C9.17,15.855,9.168,15.927,9.168,16c0,1.755,0.662,3.355,1.75,4.566
		c0-0.001-0.002-0.003-0.002-0.003S12.785,17.245,16.473,16.053z"></path>
      <path d="M15.621,13.757c-1.182-2.102-2.445-3.815-2.537-3.937c-1.905,0.9-3.326,2.655-3.771,4.771
		C9.494,14.595,12.342,14.629,15.621,13.757z"></path>
      <path d="M14.363,9.366c-0.008,0.003-0.016,0.003-0.022,0.006c0.013-0.003,0.021-0.004,0.021-0.004
		S14.363,9.367,14.363,9.366z"></path>
      <path d="M20.513,10.873C19.309,9.812,17.729,9.167,16,9.167c-0.555,0-1.094,0.068-1.61,0.193
		c0.103,0.136,1.386,1.84,2.553,3.986C19.522,12.38,20.495,10.899,20.513,10.873z"></path>
      <path d="M11.801,21.386l0.001-0.002c-0.051-0.04-0.104-0.076-0.154-0.117
		C11.737,21.339,11.801,21.386,11.801,21.386z"></path>
      <path d="M16,0C7.162,0,0,7.164,0,16c0,8.836,7.162,16,16,16c8.837,0,16-7.164,16-16C32,7.164,24.837,0,16,0z
		 M23.836,17.611c-0.104,0.514-0.262,1.021-0.466,1.503c-0.2,0.474-0.448,0.933-0.737,1.36c-0.286,0.423-0.615,0.821-0.977,1.183
		c-0.361,0.361-0.76,0.689-1.184,0.976c-0.427,0.289-0.885,0.538-1.358,0.738c-0.483,0.205-0.99,0.361-1.504,0.466
		C17.084,23.946,16.542,24,16,24s-1.084-0.055-1.611-0.164c-0.515-0.105-1.02-0.261-1.503-0.466c-0.474-0.2-0.932-0.449-1.36-0.738
		c-0.423-0.286-0.82-0.614-1.183-0.976c-0.362-0.362-0.69-0.76-0.976-1.183c-0.289-0.427-0.539-0.886-0.738-1.36
		c-0.204-0.482-0.361-0.989-0.467-1.503C8.055,17.085,8,16.542,8,16c0-0.542,0.055-1.084,0.162-1.61
		c0.105-0.514,0.263-1.021,0.467-1.504c0.199-0.475,0.449-0.932,0.738-1.359c0.285-0.423,0.613-0.822,0.976-1.183
		c0.362-0.362,0.76-0.691,1.183-0.977c0.429-0.29,0.887-0.538,1.36-0.738c0.483-0.204,0.988-0.362,1.503-0.466
		C14.916,8.055,15.458,8,16,8s1.084,0.055,1.61,0.164c0.514,0.104,1.021,0.262,1.504,0.466c0.474,0.201,0.932,0.448,1.358,0.738
		c0.424,0.286,0.822,0.614,1.184,0.977c0.361,0.361,0.69,0.76,0.977,1.183c0.289,0.427,0.537,0.884,0.737,1.359
		c0.204,0.483,0.361,0.99,0.466,1.504C23.945,14.915,24,15.458,24,16C24,16.542,23.945,17.085,23.836,17.611z"></path>
      <path d="M17.162,17.118c-4.035,1.405-5.35,4.241-5.36,4.266c1.159,0.905,2.614,1.449,4.198,1.449
		c0.946,0,1.848-0.193,2.667-0.542c-0.101-0.597-0.498-2.689-1.46-5.188C17.192,17.108,17.178,17.112,17.162,17.118z"></path>
      <path d="M17.47,14.364c0.158,0.326,0.312,0.657,0.454,0.991c0.051,0.118,0.1,0.236,0.146,0.353
		c2.349-0.295,4.66,0.202,4.76,0.224c-0.018-1.621-0.596-3.107-1.555-4.271C21.262,11.679,20.167,13.263,17.47,14.364z"></path>
      <path d="M18.488,16.786c0.896,2.463,1.26,4.468,1.329,4.88c1.534-1.036,2.624-2.678,2.928-4.582
		C22.604,17.039,20.692,16.434,18.488,16.786z"></path>
    </g>
  </g>
  <g id="dropbox" data-iconmelon="Flat Social Icons:a57142a646219e495b85f185ff6a4cec">
    <g>
      <polygon points="11.254,14.239 16,17.169 20.746,14.239 16,11.31 	"></polygon>
      <path d="M16,0C7.162,0,0,7.164,0,16c0,8.836,7.162,16,16,16c8.837,0,16-7.164,16-16C32,7.164,24.837,0,16,0z
		 M20.727,20.61l-4.716,2.826l-4.717-2.826v-1.035l1.414,0.922l3.303-2.739l3.303,2.739l1.413-0.922V20.61z M24,16.843l-4.707,3.071
		L16,17.169l-3.293,2.746L8,16.843l3.254-2.604L8,11.633l4.707-3.069L16,11.31l3.293-2.746L24,11.633l-3.254,2.606L24,16.843z"></path>
    </g>
  </g>
  <g id="tumblr" data-iconmelon="Flat Social Icons:24bf431e88e63578da6132535013e512">
    <path d="M16,0.001C7.163,0.001,0,7.164,0,16c0,8.836,7.163,16,16,16s16-7.164,16-16C32,7.164,24.837,0.001,16,0.001z
	 M20.501,23.128c-0.685,0.32-1.303,0.547-1.857,0.676C18.089,23.936,17.49,24,16.846,24c-0.731,0-1.379-0.093-1.939-0.276
	c-0.562-0.187-1.042-0.448-1.438-0.791c-0.396-0.342-0.673-0.707-0.825-1.091c-0.153-0.385-0.229-0.943-0.229-1.675v-5.611h-1.77
	v-2.264c0.63-0.205,1.167-0.498,1.615-0.878c0.448-0.381,0.809-0.839,1.079-1.374C13.608,9.506,13.796,8.825,13.898,8h2.275v4.044
	h3.796v2.511h-3.796v4.103c0,0.928,0.049,1.523,0.146,1.786c0.098,0.265,0.28,0.475,0.55,0.632c0.353,0.212,0.757,0.317,1.213,0.317
	c0.811,0,1.615-0.264,2.418-0.791V23.128z"></path>
  </g>
  <g id="wordpress" data-iconmelon="Flat Social Icons:8982a6e065298d42a98bf7a0e7a8e880">
    <path d="M16,0C7.162,0,0,7.163,0,16s7.162,16,16,16c8.837,0,16-7.164,16-16S24.837,0,16,0z M8,16
	c0-1.161,0.249-2.261,0.693-3.257l3.816,10.456C9.841,21.904,8,19.166,8,16z M16.001,24.001c-0.787,0-1.544-0.114-2.26-0.325
	l2.401-6.976l2.458,6.737c0.016,0.039,0.036,0.075,0.057,0.109C17.826,23.84,16.933,24.001,16.001,24.001z M17.104,12.249
	c0.482-0.025,0.915-0.076,0.915-0.076c0.431-0.053,0.38-0.685-0.05-0.66c0,0-1.297,0.103-2.133,0.103
	c-0.786,0-2.107-0.103-2.107-0.103c-0.431-0.024-0.482,0.634-0.051,0.66c0,0,0.408,0.05,0.839,0.076l1.247,3.415l-1.751,5.25
	l-2.914-8.665c0.482-0.025,0.915-0.076,0.915-0.076c0.432-0.053,0.38-0.685-0.05-0.66c0,0-1.295,0.103-2.132,0.103
	c-0.15,0-0.326-0.005-0.515-0.01c1.43-2.172,3.888-3.607,6.685-3.607c2.083,0,3.979,0.797,5.402,2.101
	c-0.035-0.002-0.069-0.007-0.103-0.007c-0.787,0-1.343,0.685-1.343,1.42c0,0.66,0.38,1.217,0.785,1.876
	c0.304,0.532,0.66,1.217,0.66,2.207c0,0.686-0.204,1.546-0.608,2.586l-0.798,2.666L17.104,12.249z M20.024,22.915l2.443-7.064
	c0.457-1.142,0.609-2.054,0.609-2.865c0-0.295-0.02-0.568-0.055-0.824C23.646,13.302,24,14.608,24,16
	C24,18.952,22.401,21.528,20.024,22.915z"></path>
  </g>
  <g id="youtube" data-iconmelon="Flat Social Icons:f9e142e4c73e16cac7c3691b8694eec7">
    <g>
      <path d="M15.032,20.878c-0.064,0.081-0.137,0.145-0.225,0.194c-0.081,0.056-0.146,0.08-0.202,0.08
		c-0.065,0-0.121-0.016-0.146-0.056c-0.033-0.04-0.049-0.105-0.049-0.185v-2.807h-0.726v3.056c0,0.218,0.04,0.379,0.121,0.484
		c0.089,0.113,0.218,0.169,0.387,0.169c0.138,0,0.275-0.04,0.42-0.121c0.145-0.073,0.29-0.187,0.419-0.339v0.403h0.733v-3.653
		h-0.733V20.878z"></path>
      <path d="M17.701,18.064c-0.113,0-0.226,0.032-0.339,0.088c-0.112,0.057-0.217,0.146-0.313,0.25v-1.588h-0.734v4.943
		h0.734v-0.282c0.097,0.113,0.201,0.193,0.313,0.25c0.113,0.056,0.234,0.08,0.38,0.08c0.217,0,0.387-0.072,0.499-0.209
		c0.113-0.137,0.169-0.338,0.169-0.597v-2.024c0-0.299-0.064-0.524-0.186-0.678C18.104,18.145,17.927,18.064,17.701,18.064z
		 M17.661,20.902c0,0.121-0.025,0.202-0.065,0.25c-0.04,0.057-0.104,0.082-0.201,0.082c-0.057,0-0.113-0.017-0.169-0.041
		c-0.057-0.024-0.121-0.073-0.177-0.129V18.79c0.048-0.049,0.104-0.089,0.153-0.113c0.048-0.024,0.104-0.032,0.153-0.032
		c0.097,0,0.178,0.032,0.226,0.097c0.056,0.065,0.081,0.153,0.081,0.275V20.902z"></path>
      <path d="M15.887,14.023c0.113,0,0.202-0.032,0.266-0.097c0.065-0.064,0.097-0.145,0.097-0.25v-2.194
		c0-0.088-0.032-0.161-0.097-0.209c-0.072-0.057-0.161-0.081-0.266-0.081c-0.097,0-0.186,0.024-0.242,0.081
		c-0.064,0.048-0.097,0.121-0.097,0.209v2.194c0,0.104,0.033,0.193,0.089,0.25C15.693,13.992,15.782,14.023,15.887,14.023z"></path>
      <polygon points="10.838,17.531 11.685,17.531 11.685,21.757 12.508,21.757 12.508,17.531 13.363,17.531 
		13.363,16.814 10.838,16.814 	"></polygon>
      <path d="M16.001,0C7.165,0,0,7.164,0,16c0,8.836,7.165,16,16.001,16C24.837,32,32,24.836,32,16
		C32,7.164,24.837,0,16.001,0z M17.749,10.596h0.823v3.082c0,0.097,0.016,0.161,0.057,0.209c0.032,0.04,0.089,0.064,0.161,0.064
		c0.065,0,0.137-0.032,0.234-0.088c0.089-0.057,0.177-0.129,0.25-0.217v-3.049h0.823v4.017h-0.823v-0.443
		c-0.153,0.169-0.307,0.291-0.468,0.379c-0.169,0.081-0.322,0.121-0.483,0.121c-0.185,0-0.332-0.057-0.428-0.178
		c-0.097-0.121-0.146-0.298-0.146-0.541V10.596z M14.702,11.516c0-0.315,0.111-0.557,0.33-0.742
		c0.226-0.186,0.524-0.283,0.896-0.283c0.338,0,0.62,0.097,0.838,0.299c0.21,0.193,0.323,0.443,0.323,0.75v2.072
		c0,0.347-0.105,0.613-0.323,0.806c-0.209,0.202-0.508,0.298-0.878,0.298c-0.355,0-0.646-0.104-0.863-0.306
		c-0.21-0.202-0.321-0.468-0.321-0.814V11.516z M12.467,9.168l0.597,2.178h0.065l0.572-2.178h0.936l-1.073,3.186v2.258h-0.927
		v-2.153l-1.105-3.291H12.467z M24,20.548c0,1.257-1.033,2.282-2.282,2.282H10.282C9.032,22.831,8,21.806,8,20.548v-2.331
		c0-1.258,1.032-2.291,2.282-2.291h11.436c1.25,0,2.282,1.033,2.282,2.291V20.548z"></path>
      <path d="M19.902,18.016c-0.331,0-0.597,0.104-0.798,0.299c-0.21,0.201-0.314,0.459-0.314,0.774v1.636
		c0,0.355,0.097,0.63,0.282,0.831c0.186,0.202,0.444,0.299,0.775,0.299c0.362,0,0.637-0.089,0.814-0.283
		c0.186-0.186,0.283-0.467,0.283-0.847V20.54h-0.759v0.169c0,0.21-0.024,0.355-0.072,0.411c-0.048,0.065-0.129,0.097-0.25,0.097
		c-0.113,0-0.202-0.032-0.25-0.113c-0.049-0.072-0.065-0.202-0.065-0.396v-0.685h1.396v-0.936c0-0.347-0.097-0.605-0.275-0.791
		C20.492,18.112,20.234,18.016,19.902,18.016z M20.185,19.451h-0.637V19.08c0-0.146,0.016-0.258,0.073-0.322
		c0.048-0.064,0.129-0.105,0.25-0.105c0.112,0,0.193,0.041,0.241,0.105s0.072,0.177,0.072,0.322V19.451z"></path>
    </g>
  </g>
  <g id="youtube1" data-iconmelon="Flat Social Icons:ae51022a3ad2fc6c00a29d6f7454ccbf">
    <g>
      <polygon points="13.868,19.084 19.106,16.008 13.868,12.931 	"></polygon>
      <path d="M16,0C7.163,0,0,7.164,0,16c0,8.836,7.163,16,16,16c8.836,0,16-7.164,16-16C32,7.164,24.836,0,16,0z
		 M24,18.86c0,2.757-2.758,2.757-2.758,2.757H10.756C8,21.617,8,18.86,8,18.86V13.14c0-2.757,2.756-2.757,2.756-2.757h10.486
		C24,10.382,24,13.14,24,13.14V18.86z"></path>
    </g>
  </g>
  <g id="facebook" data-iconmelon="Flat Social Icons:05a5948ba66490483129c2bcdaa481f1">
    <path d="M16,0C7.163,0,0,7.164,0,16c0,8.837,7.163,16,16,16s16-7.163,16-16C32,7.164,24.836,0,16,0z M19.532,13.291
	l-0.184,2.394h-2.454V24h-3.101v-8.315H12.14v-2.394h1.654v-1.608c0-0.708,0.018-1.802,0.533-2.479C14.869,8.487,15.614,8,16.895,8
	c2.087,0,2.965,0.298,2.965,0.298l-0.414,2.451c0,0-0.689-0.2-1.332-0.2c-0.644,0-1.22,0.231-1.22,0.874v1.869H19.532z"></path>
  </g>
  <g id="twitter" data-iconmelon="Flat Social Icons:26b05726b10222fa77dc99e12fd47da2">
    <path d="M16,0C7.164,0,0,7.164,0,16c0,8.837,7.164,16,16,16c8.837,0,16-7.163,16-16C32,7.164,24.837,0,16,0z
	 M22.373,13.511c0.006,0.14,0.009,0.283,0.009,0.425c0,4.346-3.306,9.355-9.355,9.355c-1.856,0-3.585-0.544-5.04-1.477
	c0.257,0.031,0.52,0.045,0.784,0.045c1.54,0,2.958-0.525,4.084-1.408c-1.439-0.025-2.653-0.977-3.071-2.282
	c0.2,0.039,0.406,0.059,0.618,0.059c0.301,0,0.591-0.039,0.866-0.116c-1.505-0.301-2.639-1.63-2.639-3.224v-0.041
	c0.445,0.245,0.952,0.394,1.49,0.411c-0.882-0.59-1.462-1.597-1.462-2.737c0-0.603,0.161-1.167,0.444-1.655
	c1.623,1.991,4.046,3.299,6.778,3.436c-0.058-0.24-0.085-0.491-0.085-0.749c0-1.815,1.472-3.288,3.287-3.288
	c0.946,0,1.802,0.399,2.399,1.038c0.751-0.147,1.454-0.42,2.09-0.797c-0.244,0.768-0.767,1.411-1.446,1.818
	c0.665-0.08,1.299-0.256,1.889-0.518C23.575,12.468,23.016,13.047,22.373,13.511z"></path>
  </g>
</svg>