<?xml version="1.0" encoding="UTF-8" standalone="no"?>
<svg
   xmlns:dc="http://purl.org/dc/elements/1.1/"
   xmlns:cc="http://creativecommons.org/ns#"
   xmlns:rdf="http://www.w3.org/1999/02/22-rdf-syntax-ns#"
   xmlns:svg="http://www.w3.org/2000/svg"
   xmlns="http://www.w3.org/2000/svg"
   xmlns:sodipodi="http://sodipodi.sourceforge.net/DTD/sodipodi-0.dtd"
   xmlns:inkscape="http://www.inkscape.org/namespaces/inkscape"
   viewBox="0 0 228 228.00001"
   height="228"
   width="228"
   xml:space="preserve"
   version="1.1"
   id="svg2"
   inkscape:version="0.48.5 r10040"
   sodipodi:docname="BaseX.svg"
   inkscape:export-filename="C:\Users\user\Desktop\BaseX_512.png"
   inkscape:export-xdpi="202.10527"
   inkscape:export-ydpi="202.10527"><sodipodi:namedview
     pagecolor="#ffffff"
     bordercolor="#666666"
     borderopacity="1"
     objecttolerance="10"
     gridtolerance="10"
     guidetolerance="10"
     inkscape:pageopacity="0"
     inkscape:pageshadow="2"
     inkscape:window-width="2498"
     inkscape:window-height="1417"
     id="namedview3026"
     showgrid="false"
     fit-margin-top="20"
     fit-margin-left="20"
     fit-margin-right="20"
     fit-margin-bottom="20"
     inkscape:zoom="2.24"
     inkscape:cx="31.778518"
     inkscape:cy="91.018738"
     inkscape:window-x="-8"
     inkscape:window-y="-8"
     inkscape:window-maximized="1"
     inkscape:current-layer="g12" /><metadata
     id="metadata8"><rdf:RDF><cc:Work
         rdf:about=""><dc:format>image/svg+xml</dc:format><dc:type
           rdf:resource="http://purl.org/dc/dcmitype/StillImage" /><dc:title></dc:title></cc:Work></rdf:RDF></metadata><defs
     id="defs6" /><g
     transform="matrix(1.25,0,0,-1.25,14.81959,218.00002)"
     id="g10"><g
       transform="scale(0.1,0.1)"
       id="g12"><rect
         style="fill-opacity:1;fill:#ffffff"
         id="rect2992"
         width="228"
         height="228"
         x="0"
         y="0"
         transform="matrix(8.0000004,0,0,-8.0000004,-118.55676,1744.0002)" /><path
         id="path14"
         style="fill:#4f4c4c;fill-opacity:1;fill-rule:nonzero;stroke:none"
         d="m 1086.52,1051.684 c 7.91,-2.149 18.77,-5.219 28.04,-10.782 0,0 139.07,152.138 170.19,183.388 21.86,21.95 46.27,41.12 73,57.05 20.29,12.1 41.43,21.48 65.87,20.77 16.24,-0.48 47.17,-0.4 63.43,-0.42 12.73,-0.02 29.75,17.16 29.76,29.98 0.04,36.79 0.03,73.58 0,110.38 -0.01,13.06 -16.38,29.49 -29.42,29.5 l -571.093,0.01 c -13,0.01 -30.707,-16.54 -30.738,-29 -0.094,-37.46 -0.067,-74.93 0,-112.39 -0.047,-15.62 8.218,-28.28 26.402,-28.36 l 100.461,-0.09 c 29.998,0.16 31.718,-24.68 20.638,-37.08 L 814.449,1039.691 638.199,1255.32 c -18.902,25.31 -5,46.4 11.25,46.87 l 89.571,-0.18 c 20.675,0 31.191,14.49 31.269,30.23 0.02,36.35 0.016,72.7 0.004,109.05 -0.008,13.98 -16.125,30.28 -30.008,30.26 -29.652,-0.03 -59.308,-0.18 -88.965,-0.17 -182.629,0.04 -378.355,0.82 -560.987999,0.88 -13.9492,0.01 -32.7422,-16.31 -32.75,-30.21 -0.0156,-35.46 0.3047,-71.65 0,-107.11 0,-19.87 12.7774,-32.47 31.5625,-32.48 19.621099,-0.01 52.335499,-0.9 71.957499,-1.01 25.648,-0.14 49.945,-5.89 74.05,-14.89 33.801,-12.62 52.293,-33.94 72.723,-57.62 24,-27.82 193.613,-239.21 207.238,-256.17401 l 13.262,32.60501 c 0,0 -203.395,254.879 -225.516,274.489 -20.527,18.2 -46.921,28.79 -73.297,37.2 -27.191,8.67 -55.386,10.86 -83.742,11.32 -9.808,0.16 -32.7184,0.68 -42.5309,0.73 -10.339899,0.04 -16.394599,6.14 -16.406299,16.57 -0.0312,27.87 -0.0273,55.75 0,83.62 0.0078,10.88 6.0117,16.93 16.843799,16.91 18.2574,-0.03 49.6094,-0.94 67.8634,-0.94 172.152,-0.02 344.305,0 516.457,-0.03 13.371,0 26.75,-0.65 40.105,-0.27 9.559,0.27 15.227,-6.55 15.289,-13.8 0.262,-29.43 0.2,-58.87 0.051,-88.3 -0.043,-7.92 -4.094,-15.16 -14.609,-15.16 l -81.778,-0.05 c -33.121,0 -60.156,-43.59 -35.949,-78.86 25.282,-31.7 201.793,-252.362 201.793,-252.362 42.336,44.589 237.221,240.332 244.861,257.492 15.15,18.84 11.74,68.29 -31.48,74.2 l -98.369,-0.41 c -9.199,0.11 -15.625,6.3 -15.66,15.39 -0.102,28.77 -0.09,57.53 -0.004,86.3 0.023,8.94 6.535,15.29 15.535,15.41 0,0 380.118,0.14 544.898,0 12.35,-0.01 17.35,-4.88 17.35,-17.16 0.01,-27.43 0.02,-54.86 0,-82.29 -0.01,-10.94 -5.89,-16.76 -16.7,-16.92 -14.91,-0.23 -44.54,0.16 -59.35,-1.18 -11.43,-1.05 -22.98,-3.34 -33.89,-6.88 -20.87,-6.79 -39.46,-18.29 -57.33,-30.92 -43.43,-30.69 -79.83,-68.99 -115.87,-107.6 -30.7,-32.886 -114.86,-123.979 -120.42,-130.186"
         inkscape:connector-curvature="0" /><path
         id="path16"
         style="fill:#4f4c4c;fill-opacity:1;fill-rule:nonzero;stroke:none"
         d="m 413.875,580.49601 -218.203,-226.797 c -18.684,-20.98 -39.781,-30.41 -64.367,-32.019 l -29.9144,-0.141 c -14.285099,-1.039 -16.910099,-10.68 -16.913999,-21.969 -0.0196,-27.6403 -0.0196,-51.3708 0.0039,-79.0192 0.0078,-10.8906 5.9414,-16.9102 16.722599,-16.9219 188.1489,-0.2773 533.2309,-0.1289 546.3439,0.2109 9.601,0 15,5.9102 15,15.2696 0.09,28.7617 0.094,57.5196 0.004,86.2886 0.101,9.461 -5.305,15.434 -15.004,15.493 l -98.891,0.007 c -47.761,0 -71.965,52.434 -45.429,90.942 0,0 174.476,203.5 188.609,218.746 3.352,-9.863 9.758,-27.875 9.758,-27.875 l -170.086,-198.973 c -25.988,-30.656 -0.235,-56.867 22.258,-56.867 l 106.3,0.141 c 15.114,0.32 29.289,-12.84 29.289,-28.871 0.122,-37.903 0.223,-74.8402 -0.203,-112.7426 0,-14.9179 -13.511,-28.43746 -28.242,-28.43746 0,0 -549.8436,-0.0391 -573.031099,-0.0625 -16.7695,0 -29.8789,11.26176 -29.8789,30.43356 -0.0273,36.5664 -0.2812,72.988 -0.2617,109.559 0.0078,13.539 10.7109,27.98 29.707,29.91 23.390599,0.211 -4.9844,-0.321 18.398499,0.211 44.6252,-2.09 55.9372,8.629 83.7892,38.277 l 189.316,195.207 34.926,0"
         inkscape:connector-curvature="0" /><path
         id="path18"
         style="fill:#4f4c4c;fill-opacity:1;fill-rule:nonzero;stroke:none"
         d="m 809.891,580.49601 30.812,0 153.699,-183.027 c 21.988,-28.239 12.305,-77.457 -39.734,-77.258 l -109.043,0.359 c -7.605,-0.3 -13.387,-3.269 -13.414,-15.422 0.18,2.813 0.262,-86.9996 0.262,-86.9996 0.023,-9.9101 4.402,-15.9375 14.414,-15.957 l 627.813,0.4805 c 9.85,-0.0313 15.25,4.9062 15.26,15.8281 0.02,27.6602 -0.09,57.3711 -0.11,85.02 0,12.742 -3.35,17.429 -14.08,17.601 -32.23,0.059 -67.73,-0.172 -79.8,2.848 -32.52,8.551 -42.65,18.191 -63.61,44.351 0,0 -200.08,241.102 -201.59,243.078 9.36,4.672 15.54,9.684 23.3,16.668 6.98,-8.578 200.67,-245.757 200.67,-245.757 20.47,-23.438 41.02,-34.707 75.02,-35.348 l 57.89,0 c 22.49,-0.02 29.03,-12.43 29.06,-35.52 0.1,-37.6793 0.18,-70.2808 -0.12,-107.9605 0.01,-16.7422 -10.52,-27.49222 -26.58,-27.4805 0,0 -635.19,0.14062 -653.026,0.14844 -21.203,0 -32.621,10.46096 -32.621,32.22266 -0.027,36.7891 -0.031,77.6289 0,114.4179 0,14.32 11.446,24.32 27.703,24.172 l 106.872,0.078 c 38.523,0.609 39.734,21.582 22.789,45.582 l -151.836,187.875"
         inkscape:connector-curvature="0" /><g
         transform="matrix(10,0,0,10,16.000001,176.00001)"
         id="g20"><g
   transform="matrix(1,0,0,-1,0,42.7367)"
   style="font-size:70.24369812px;font-variant:normal;font-weight:600;writing-mode:lr-tb;fill:#aa1818;fill-opacity:1;fill-rule:nonzero;stroke:none;font-family:Metric Semibold;-inkscape-font-specification:Metric-Semibold"
   id="text22"><path
     d="m 29.501973,-22.266966 c 1.619943,-0.582407 2.963334,-1.665316 4.030179,-3.24873 1.066778,-1.583363 1.61994,-3.544305 1.659488,-5.882833 -0.04394,-3.869173 -1.343428,-6.7901 -3.898476,-8.762789 -2.555111,-1.97261 -6.102368,-2.961861 -10.641783,-2.967757 l -16.5070562,0 0,43.129075 17.9119122,0 c 4.536488,-0.01317042 8.072038,-1.0580311 10.606662,-3.1345852 2.534559,-2.0765478 3.822342,-5.1057651 3.863354,-9.0876608 -0.03808,-2.394095 -0.699538,-4.48967 -1.98436,-6.286731 -1.284891,-1.797024 -2.964863,-3.049686 -5.03992,-3.757989 z m -16.717785,-3.160925 0,-10.114963 7.305251,0 c 2.146772,-0.0073 3.771134,0.393688 4.873092,1.202909 1.101909,0.809289 1.655071,2.070731 1.659488,3.78433 -0.0044,1.719514 -0.557579,3.00437 -1.659487,3.854572 -1.101957,0.850256 -2.72632,1.27464 -4.873093,1.273152 z m 0,7.024279 8.499379,0 c 2.113113,0.01465 3.716988,0.494643 4.81163,1.439976 1.094589,0.945367 1.644824,2.268272 1.650707,3.968719 -0.0059,1.669741 -0.556116,2.983866 -1.650707,3.9423764 -1.094643,0.958529 -2.698518,1.4473014 -4.81163,1.4663189 l -8.499379,0 z"
     id="path3029"
     inkscape:connector-curvature="0" /><path
     d="M 55.112494,-43.129075 38.605438,0 l 8.991077,0 3.793111,-10.395933 16.155843,0 L 71.408823,0 80.540386,0 64.033329,-43.129075 z m 4.355054,10.81739 5.268209,14.32953 -10.536419,0 z"
     id="path3031"
     inkscape:connector-curvature="0" /><path
     d="m 84.087721,-2.9501973 c 1.57168,1.0126685 3.556037,1.8672879 5.953078,2.56386089 2.397024,0.69657371 5.048686,1.0594948 7.954996,1.08876435 4.676975,-0.001463 8.546175,-1.06973824 11.607625,-3.20482804 3.06138,-2.1350847 4.64769,-5.3282017 4.75895,-9.5793609 0.0131,-3.175544 -0.83856,-5.797939 -2.55509,-7.867192 -1.71658,-2.069214 -4.37703,-3.70821 -7.98133,-4.916996 l -6.743312,-2.318012 c -1.520479,-0.459478 -2.694118,-1.033127 -3.52092,-1.72095 -0.826827,-0.687764 -1.245357,-1.682869 -1.25559,-2.985317 0.04243,-1.469214 0.695101,-2.552123 1.958019,-3.248732 1.262892,-0.696538 2.881401,-1.041897 4.855532,-1.036079 2.481891,0.01613 4.770631,0.422956 6.866231,1.220468 2.09555,0.797583 4.0682,1.889272 5.91796,3.275071 l 0,-8.780349 c -1.75171,-1.062382 -3.70973,-1.887735 -5.87406,-2.476061 -2.16437,-0.58824 -4.56141,-0.886771 -7.191102,-0.895593 -4.325797,0.01468 -7.931591,1.074172 -10.81739,3.178486 -2.885813,2.104395 -4.384325,5.165807 -4.495539,9.184245 0.04244,3.526801 1.0112,6.25456 2.906295,8.183285 1.895085,1.928771 4.461872,3.392162 7.700367,4.390175 l 6.321849,2.107284 c 1.62435,0.557567 2.87115,1.198531 3.74043,1.922895 0.86923,0.724394 1.30825,1.769255 1.31705,3.134586 -0.0468,1.671203 -0.77854,2.8770362 -2.19508,3.6175033 -1.41659,0.7404833 -3.23705,1.1034044 -5.461381,1.0887643 -2.514122,-0.019017 -4.949203,-0.455107 -7.305251,-1.3082725 -2.356066,-0.8531489 -4.510176,-2.0092271 -6.462337,-3.4682371 z"
     id="path3033"
     inkscape:connector-curvature="0" /><path
     d="m 120.78993,-43.129075 0,43.129075 29.29125,0 0,-7.9374357 -20.44066,0 0,-10.2554483 18.5441,0 0,-7.656464 -18.5441,0 0,-9.412534 20.44066,0 0,-7.867193 z"
     id="path3035"
     inkscape:connector-curvature="0" /></g>
</g></g></g></svg>