<?xml version="1.0" encoding="utf-8"?>
<!-- Generator: Adobe Illustrator 16.0.0, SVG Export Plug-In . SVG Version: 6.00 Build 0)  -->
<!DOCTYPE svg PUBLIC "-//W3C//DTD SVG 1.1//EN" "http://www.w3.org/Graphics/SVG/1.1/DTD/svg11.dtd">
<svg version="1.1" id="Layer_1" xmlns="http://www.w3.org/2000/svg" xmlns:xlink="http://www.w3.org/1999/xlink" x="0px" y="0px"
	 width="539.956px" height="97.653px" viewBox="161.063 249.365 539.956 97.653"
	 enable-background="new 161.063 249.365 539.956 97.653" xml:space="preserve">
<g>
	<path fill="#FFFFFF" d="M418.356,332.032h4.929c4.622,0,6.935,1.797,6.935,5.392v1.435c0,1.589-0.617,2.865-1.853,3.827
		c-1.232,0.961-2.928,1.442-5.082,1.442h-4.929V332.032L418.356,332.032z M428.9,338.858v-1.435c0-1.531-0.476-2.642-1.427-3.325
		c-0.95-0.687-2.347-1.028-4.188-1.028h-3.61v10.021h3.61c1.781,0,3.162-0.384,4.145-1.149
		C428.411,341.176,428.9,340.148,428.9,338.858L428.9,338.858z"/>
	<path fill="#FFFFFF" d="M432.423,338.909v-1.52c0-3.756,2.274-5.633,6.823-5.633c4.563,0,6.845,1.877,6.845,5.633v1.52
		c0,1.658-0.605,2.988-1.814,3.991c-1.211,1.002-2.887,1.503-5.029,1.503c-2.142,0-3.815-0.501-5.02-1.503
		C433.023,341.898,432.423,340.568,432.423,338.909L432.423,338.909z M444.771,338.909v-1.52c0-1.625-0.465-2.797-1.391-3.518
		c-0.929-0.72-2.306-1.079-4.136-1.079s-3.205,0.355-4.125,1.07c-0.922,0.715-1.383,1.89-1.383,3.525v1.52
		c0,1.359,0.479,2.441,1.437,3.248c0.957,0.808,2.313,1.209,4.071,1.209c1.771,0,3.134-0.399,4.091-1.2
		C444.294,341.365,444.771,340.281,444.771,338.909L444.771,338.909z"/>
	<path fill="#FFFFFF" d="M448.291,338.909l0.021-1.52c0-3.756,2.213-5.633,6.643-5.633c1.759,0,3.121,0.313,4.091,0.94
		c0.971,0.627,1.592,1.64,1.868,3.031h-1.229c-0.275-1.036-0.785-1.785-1.525-2.245c-0.739-0.461-1.809-0.69-3.205-0.69
		c-1.78,0-3.118,0.355-4.016,1.07c-0.898,0.715-1.346,1.883-1.346,3.508v1.537c0,1.405,0.461,2.507,1.381,3.302
		c0.92,0.794,2.248,1.19,3.979,1.19c1.339,0,2.379-0.256,3.125-0.77c0.746-0.513,1.271-1.24,1.57-2.187h1.246
		c-0.613,2.649-2.594,3.976-5.941,3.976c-2.082,0-3.713-0.486-4.893-1.46C448.881,341.986,448.291,340.638,448.291,338.909
		L448.291,338.909z"/>
	<polygon fill="#FFFFFF" points="474.977,332.032 476.693,332.032 470.697,338.08 476.746,344.128 475.014,344.128 469.832,338.893 
		464.65,344.128 462.916,344.128 468.966,338.08 462.971,332.032 464.703,332.032 469.832,337.285 	"/>
	<polygon fill="#FFFFFF" points="479.021,338.2 484.8,338.2 484.8,339.17 479.021,339.17 	"/>
	<polygon fill="#FFFFFF" points="487.093,334.745 487.093,333.692 498.07,337.926 498.07,339.014 487.093,343.246 487.093,342.176 
		496.807,338.479 	"/>
	<polygon fill="#FFFFFF" points="511.648,332.032 513.363,332.032 507.367,338.08 513.417,344.128 511.684,344.128 506.503,338.893 
		501.32,344.128 499.587,344.128 505.635,338.08 499.641,332.032 501.373,332.032 506.503,337.285 	"/>
	<polygon fill="#FFFFFF" points="528.367,332.032 530.1,332.032 530.1,344.128 528.927,344.128 528.927,333.676 523.527,344.128 
		522.281,344.128 516.902,333.641 516.902,344.128 515.712,344.128 515.712,332.032 517.443,332.032 522.896,342.764 	"/>
	<polygon fill="#FFFFFF" points="532.609,332.032 533.928,332.032 533.928,343.092 542.305,343.092 542.305,344.128 
		532.609,344.128 	"/>
	<polygon fill="#FFFFFF" points="543.768,338.2 549.546,338.2 549.546,339.17 543.768,339.17 	"/>
	<polygon fill="#FFFFFF" points="551.839,334.745 551.839,333.692 562.816,337.926 562.816,339.014 551.839,343.246 
		551.839,342.176 561.553,338.479 	"/>
	<path fill="#FFFFFF" d="M564.531,332.032h4.982c1.106,0,2.059,0.1,2.854,0.295s1.433,0.529,1.914,1.002
		c0.48,0.473,0.724,1.07,0.724,1.798v0.812c0,0.921-0.494,1.655-1.48,2.203c-0.988,0.547-2.324,0.82-4.01,0.82h-3.664v5.166h-1.318
		L564.531,332.032L564.531,332.032z M573.74,335.904v-0.761c0-1.405-1.391-2.107-4.172-2.107h-3.719v4.925h3.719
		c1.289,0,2.305-0.188,3.051-0.563C573.367,337.023,573.74,336.525,573.74,335.904L573.74,335.904z"/>
	<path fill="#FFFFFF" d="M576.771,332.032h4.93c4.623,0,6.935,1.797,6.935,5.392v1.435c0,1.589-0.617,2.865-1.851,3.827
		c-1.233,0.961-2.93,1.442-5.084,1.442h-4.93V332.032L576.771,332.032z M587.316,338.858v-1.435c0-1.531-0.475-2.642-1.426-3.325
		c-0.951-0.687-2.349-1.028-4.189-1.028h-3.61v10.021h3.61c1.783,0,3.164-0.384,4.146-1.149
		C586.827,341.176,587.316,340.148,587.316,338.858L587.316,338.858z"/>
	<polygon fill="#FFFFFF" points="591.001,332.032 600.695,332.032 600.695,333.07 592.318,333.07 592.318,337.338 600.354,337.338 
		600.354,338.374 592.318,338.374 592.318,344.128 591.001,344.128 	"/>
	<polygon fill="#FFFFFF" points="608.316,332.032 609.382,332.032 602.646,344.128 601.563,344.128 	"/>
	<polygon fill="#FFFFFF" points="611.061,332.032 621.352,332.032 621.352,333.07 612.38,333.07 612.38,337.338 621.009,337.338 
		621.009,338.374 612.38,338.374 612.38,343.092 621.462,343.092 621.462,344.128 611.061,344.128 	"/>
	<path fill="#FFFFFF" d="M623.104,332.032h4.982c1.106,0,2.059,0.1,2.854,0.295s1.432,0.529,1.914,1.002
		c0.48,0.473,0.721,1.07,0.721,1.798v0.812c0,0.921-0.492,1.655-1.479,2.203c-0.988,0.547-2.324,0.82-4.01,0.82h-3.664v5.166h-1.318
		V332.032L623.104,332.032z M632.311,335.904v-0.761c0-1.405-1.389-2.107-4.17-2.107h-3.719v4.925h3.719
		c1.287,0,2.305-0.188,3.051-0.563S632.311,336.525,632.311,335.904L632.311,335.904z"/>
	<path fill="#FFFFFF" d="M645.762,332.032h1.317v7.725c0,1.404-0.528,2.533-1.588,3.386c-1.061,0.854-2.51,1.279-4.352,1.279
		s-3.289-0.427-4.342-1.279c-1.056-0.853-1.58-1.98-1.58-3.386v-7.725h1.299v7.725c0,1.116,0.406,2.001,1.219,2.65
		c0.813,0.651,1.947,0.978,3.404,0.978c1.469,0,2.604-0.325,3.412-0.978c0.807-0.649,1.209-1.534,1.209-2.65L645.762,332.032
		L645.762,332.032z"/>
	<path fill="#FFFFFF" d="M649.464,332.032h5.76c1.541,0,2.725,0.221,3.549,0.657c0.824,0.438,1.236,1.146,1.236,2.125v0.69
		c0,0.588-0.217,1.086-0.65,1.494c-0.433,0.409-1.035,0.694-1.805,0.854c0.854,0.15,1.531,0.45,2.031,0.899
		c0.5,0.447,0.748,1.013,0.748,1.691v0.83c0,0.887-0.492,1.584-1.48,2.09c-0.986,0.508-2.316,0.761-3.988,0.761h-5.399
		L649.464,332.032L649.464,332.032z M658.727,335.575v-0.674c0-1.244-1.139-1.866-3.412-1.866h-4.533v4.337h4.533
		c1.107,0,1.953-0.164,2.535-0.492C658.434,336.552,658.727,336.116,658.727,335.575L658.727,335.575z M659.068,341.139v-0.742
		c0-1.371-1.371-2.057-4.115-2.057h-4.172v4.786h4.172c1.265,0,2.267-0.186,3.007-0.554
		C658.699,342.203,659.068,341.727,659.068,341.139L659.068,341.139z"/>
	<path fill="#FFFFFF" d="M298.318,303.531l-13.272-49.233c-1.166-0.272-14.125-0.108-16.453-0.108
		c-5.184,0-11.375-0.307-16.436,0.034l-0.003,92.244c5.31,0.256,17.518,0.029,23.542,0.028l-0.024-43.708
		c0.037,0.391,1.313,4.313,1.569,5.184c0.562,1.896,1.088,3.661,1.62,5.531l8.104,27.61c0.214,0.738,1.302,5.221,1.82,5.381
		l19.355-0.007c0.456-2.337,8.688-29.452,9.769-33.091l2.854-9.643c0.201-0.686,0.199-0.957,0.564-1.459l0.056,44.104
		c1.3,0.24,20.875,0.205,23.114,0.051l-0.002-92.242l-32.609-0.025c-0.563,0.851-2.938,10.385-3.443,12.243
		C307.654,269.311,298.815,302.412,298.318,303.531L298.318,303.531z"/>
	<path fill="#FFFFFF" d="M195.872,254.189l-33.707,0.002c0.229,0.98,20.972,37.116,23.111,40.866
		c3.757,6.583,3.81,3.903-0.682,11.535c-2.354,3.998-22.875,38.354-23.531,39.901l33.926-0.028l9.667-18.922
		c0.095-0.191,0.173-0.389,0.293-0.599l0.304-0.428c0.013-0.062,0.058-0.068,0.15-0.129l10.115,20.105l33.924-0.062l-23.665-40.065
		c-3.884-6.607-4.087-5.234-2.041-8.692l11.473-20.152c2.191-3.838,4.423-7.754,6.604-11.617c0.994-1.76,6.191-10.63,6.528-11.717
		h-32.817c-1.124,0-1.031-0.02-1.563,1.206l-8.623,18.332c-0.663-0.675-3.9-8.176-4.684-9.771
		C200.332,263.29,196.451,254.358,195.872,254.189L195.872,254.189z"/>
	<polygon fill="#FFFFFF" points="350.966,346.495 410.602,346.438 410.529,328.145 373.416,328.133 373.356,254.183 
		350.966,254.189 	"/>
	<path fill="#D4042E" d="M490.07,266.96l21.188-0.011l-0.008-12.707l-33.91,0.077l0.071,67.734l33.729-0.001
		c0.303-0.991,0.16-11.031,0.104-12.798l-21.188-0.072l0.012-12.488c1.053-0.257,14.621-0.097,16.938-0.097l-0.015-12.71
		l-16.938-0.073L490.07,266.96L490.07,266.96z"/>
	<path fill="#D4042E" d="M659.048,267.811c3.479,0.549,4.61,0.1,8.625,1.905c16.526,7.436,16.848,30.886,0.194,38.629
		c-3.315,1.542-4.953,1.393-8.764,1.952l-0.068,12.048c0.054,0.906,0.41,0.996,0.939,1.516l22.176,22.131
		c1.365,1.383,1.299,0.969,3.828,0.969l15.041-0.005c-0.369-0.702-2.635-2.684-3.346-3.442l-23.857-23.857
		c0.758-0.802,9.709-4.336,14.994-14.315c5.814-10.982,5.68-23.676-1.213-34.641c-2.029-3.228-4.334-5.523-6.898-7.752
		c-2.459-2.136-5.661-4.027-9.202-5.437c-2.773-1.104-9.048-2.757-12.425-2.284L659.048,267.811L659.048,267.811z"/>
	<path fill="#FFFFFF" d="M615.973,276.942c0.922-0.416,3.285-2.635,4.201-3.4l12.049-10.388l-12.047-10.391
		c-0.742-0.612-1.273-1.063-2.06-1.757c-0.494-0.437-1.516-1.353-2.146-1.642l-0.035,6.066c-2.189,0.906-3.865,1.368-5.898,2.428
		c-5.59,2.914-9.608,6.476-13.303,11.682c-10.354,14.6-7.682,36.383,6.031,47.818c6.281,5.237,15.371,9.462,24.344,8.736
		c-0.459-0.624-2.031-1.837-2.727-2.413c-1.004-0.831-1.892-1.584-2.808-2.399c-0.873-0.777-1.854-1.639-2.807-2.396
		c-0.945-0.755-1.809-1.609-2.711-2.291c0.373-0.65,2.422-2.164,3.102-2.771c0.857-0.768,2.56-2.044,3.091-2.752
		c-10.283-2.424-17.283-10.646-17.283-20.852c0-6.079,2.688-12.231,6.709-15.805c0.791-0.703,3.125-2.632,4.285-3.003
		L615.973,276.942L615.973,276.942z"/>
	<path fill="#D4042E" d="M625.736,253.964c0.527,0.863,9.992,8.394,10.535,9.189c-0.451,0.643-2.6,2.281-3.301,2.884
		c-1.068,0.918-2.363,1.885-3.234,2.842c0.916,0.568,7.412,1.123,12.353,7.089c6.151,7.431,7.2,17.351,1.879,25.699
		c-1.592,2.496-4.992,6.09-7.584,7.033l-0.023-6.007c-1.022,0.521-3.143,2.599-4.203,3.474c-3.164,2.607-9.459,8.311-12.078,10.282
		c0.498,0.688,15.554,13.5,16.293,13.875l0.047-5.674c4.181-1.433,6.841-2.688,10.039-4.88c8.906-6.101,15.492-17.234,15.498-29.205
		c0.006-10.469-3.771-19.29-10.7-26.193C644.977,258.118,635.1,253.446,625.736,253.964L625.736,253.964z"/>
	<path fill="#D4042E" d="M549.33,267.075h16.849l0.002,54.847c0.852,0.264,11.432,0.229,12.748,0.067v-54.912l16.928-0.049
		l-0.004-12.783l-46.596,0.011L549.33,267.075L549.33,267.075z"/>
	<path fill="#D4042E" d="M441.49,266.957c6.916,0.352,11.455,2.709,14.947,6.196c3.18,3.177,6.201,8.269,6.252,14.884
		c0.092,11.826-9.475,21.168-21.121,21.306c-0.389,2.181-0.076,7.932-0.082,10.492c-0.006,2.913-0.067,2.232,1.48,3.765
		c0.944,0.936,1.733,1.747,2.678,2.682c1.449,1.438,0.898,1.622,3.59,1.61c1.785-0.009,3.576-0.031,5.359-0.029
		c3.498,0.002,7.041,0.037,10.533-0.041c-0.263-0.533-7.886-7.985-8.886-9.059l4.527-2.758
		c27.006-19.167,14.27-61.294-19.271-61.752L441.49,266.957L441.49,266.957z"/>
	<path fill="#D4042E" d="M376.413,266.899c1.56,0.297,3.074,0.227,4.736,0.603c3.985,0.902,7.585,2.988,10.25,5.65
		c8.299,8.292,8.199,21.88,0.015,29.961c-3.538,3.492-8.018,5.785-15.017,6.144l-0.005,12.713
		c3.785,0.688,11.016-1.608,13.998-2.908c11.3-4.926,19.985-17.01,19.934-31.023c-0.053-14.268-8.653-25.729-20.087-30.872
		c-3.047-1.371-9.958-3.365-13.847-2.854L376.413,266.899L376.413,266.899z"/>
	<path fill="#D4042E" d="M547.203,309.254c-11.805-0.07-21.225-9.359-21.182-21.218c0.023-6.589,3.066-11.777,6.205-14.917
		c3.32-3.319,8.234-5.886,14.996-6.158l-0.013-12.717c-10.758,0.294-18.854,4.649-24.075,9.962
		c-21.097,21.454-6.086,57.842,24.088,57.842L547.203,309.254L547.203,309.254z"/>
	<polygon fill="#D4042E" points="426.927,322.046 439.637,322.034 439.623,254.254 438.871,254.245 427.613,254.236 
		426.925,254.284 	"/>
	<polygon fill="#D4042E" points="412.365,322.051 425.075,321.979 425.068,254.289 424.398,254.245 413.142,254.242 
		412.363,254.256 	"/>
</g>
</svg>
