<?xml version="1.0" encoding="utf-8"?>
<!-- Generator: Adobe Illustrator 16.0.0, SVG Export Plug-In . SVG Version: 6.00 Build 0)  -->
<!DOCTYPE svg PUBLIC "-//W3C//DTD SVG 1.1//EN" "http://www.w3.org/Graphics/SVG/1.1/DTD/svg11.dtd">
<svg version="1.1" id="Layer_1" xmlns="http://www.w3.org/2000/svg" xmlns:xlink="http://www.w3.org/1999/xlink" x="0px" y="0px"
	 width="841.891px" height="151.834px" viewBox="0 212.25 841.891 151.834" enable-background="new 0 212.25 841.891 151.834"
	 xml:space="preserve">
<g>
	<path d="M400.044,340.784h7.663c7.186,0,10.778,2.794,10.778,8.384v2.229c0,2.472-0.96,4.455-2.877,5.952
		c-1.919,1.494-4.552,2.241-7.903,2.241h-7.664v-18.806H400.044z M416.437,351.395v-2.228c0-2.382-0.739-4.107-2.219-5.171
		c-1.478-1.067-3.648-1.599-6.51-1.599h-5.616v15.581h5.616c2.771,0,4.916-0.598,6.442-1.786
		C415.675,355.001,416.437,353.403,416.437,351.395L416.437,351.395z"/>
	<path d="M421.912,351.478v-2.365c0-5.837,3.538-8.756,10.612-8.756c7.095,0,10.642,2.919,10.642,8.756v2.365
		c0,2.578-0.941,4.646-2.82,6.204c-1.883,1.56-4.489,2.338-7.82,2.338c-3.33,0-5.934-0.778-7.803-2.338
		C422.847,356.124,421.912,354.056,421.912,351.478L421.912,351.478z M441.115,351.478v-2.365c0-2.524-0.724-4.347-2.163-5.468
		c-1.443-1.118-3.584-1.677-6.429-1.677c-2.847,0-4.983,0.552-6.414,1.664c-1.433,1.11-2.149,2.938-2.149,5.479v2.364
		c0,2.113,0.744,3.796,2.233,5.05c1.488,1.256,3.599,1.88,6.331,1.88c2.752,0,4.871-0.62,6.359-1.867
		C440.37,355.296,441.115,353.61,441.115,351.478L441.115,351.478z"/>
	<path d="M446.586,351.478l0.032-2.365c0-5.837,3.441-8.756,10.327-8.756c2.734,0,4.853,0.485,6.359,1.463
		c1.509,0.974,2.475,2.549,2.906,4.713H464.3c-0.427-1.611-1.219-2.775-2.371-3.492c-1.15-0.717-2.813-1.072-4.983-1.072
		c-2.77,0-4.849,0.552-6.242,1.664c-1.397,1.11-2.094,2.927-2.094,5.453v2.391c0,2.183,0.715,3.895,2.146,5.133
		c1.432,1.234,3.494,1.853,6.188,1.853c2.081,0,3.698-0.399,4.858-1.197c1.16-0.797,1.975-1.929,2.441-3.4h1.938
		c-0.954,4.12-4.034,6.182-9.238,6.182c-3.237,0-5.772-0.757-7.606-2.271C447.503,356.263,446.586,354.164,446.586,351.478
		L446.586,351.478z"/>
	<polygon points="488.078,340.784 490.748,340.784 481.426,350.188 490.83,359.59 488.135,359.59 480.078,351.451 472.023,359.59 
		469.324,359.59 478.73,350.188 469.41,340.784 472.105,340.784 480.078,348.952 	"/>
	<polygon points="494.368,350.375 503.349,350.375 503.349,351.881 494.368,351.881 	"/>
	<polygon points="506.913,345.003 506.913,343.365 523.985,349.948 523.985,351.641 506.913,358.219 506.913,356.557 
		522.018,350.808 	"/>
	<polygon points="545.096,340.784 547.762,340.784 538.44,350.188 547.844,359.59 545.15,359.59 537.093,351.451 529.038,359.59 
		526.341,359.59 535.745,350.188 526.426,340.784 529.119,340.784 537.093,348.952 	"/>
	<polygon points="571.091,340.784 573.784,340.784 573.784,359.59 571.958,359.59 571.958,343.339 563.566,359.59 561.628,359.59 
		553.265,343.286 553.265,359.59 551.411,359.59 551.411,340.784 554.106,340.784 562.585,357.469 	"/>
	<polygon points="577.686,340.784 579.734,340.784 579.734,357.981 592.76,357.981 592.76,359.59 577.686,359.59 	"/>
	<polygon points="595.035,350.375 604.016,350.375 604.016,351.881 595.035,351.881 	"/>
	<polygon points="607.582,345.003 607.582,343.365 624.653,349.948 624.653,351.641 607.582,358.219 607.582,356.557 
		622.686,350.808 	"/>
	<path d="M627.318,340.784h7.746c1.722,0,3.202,0.154,4.438,0.459c1.237,0.304,2.227,0.822,2.978,1.559
		c0.745,0.734,1.123,1.663,1.123,2.795v1.262c0,1.432-0.769,2.573-2.3,3.424c-1.537,0.85-3.615,1.276-6.237,1.276h-5.695v8.031
		h-2.049v-18.806H627.318z M641.637,346.804v-1.184c0-2.185-2.163-3.277-6.487-3.277h-5.781v7.658h5.781
		c2.005,0,3.584-0.291,4.744-0.874C641.057,348.544,641.637,347.77,641.637,346.804L641.637,346.804z"/>
	<path d="M646.35,340.784h7.665c7.188,0,10.78,2.794,10.78,8.384v2.229c0,2.472-0.959,4.455-2.876,5.952
		c-1.919,1.494-4.555,2.241-7.904,2.241h-7.665V340.784L646.35,340.784z M662.745,351.395v-2.228c0-2.382-0.739-4.107-2.217-5.171
		c-1.478-1.067-3.65-1.599-6.513-1.599H648.4v15.581h5.615c2.772,0,4.92-0.598,6.443-1.786
		C661.984,355.001,662.745,353.403,662.745,351.395L662.745,351.395z"/>
	<polygon points="668.471,340.784 683.547,340.784 683.547,342.398 670.523,342.398 670.523,349.034 683.016,349.034 
		683.016,350.646 670.523,350.646 670.523,359.59 668.471,359.59 	"/>
	<polygon points="695.396,340.784 697.051,340.784 686.582,359.59 684.895,359.59 	"/>
	<polygon points="699.664,340.784 715.664,340.784 715.664,342.398 701.712,342.398 701.712,349.034 715.128,349.034 
		715.128,350.646 701.712,350.646 701.712,357.981 715.833,357.981 715.833,359.59 699.664,359.59 	"/>
	<path d="M718.387,340.784h7.746c1.722,0,3.202,0.154,4.438,0.459c1.235,0.304,2.226,0.822,2.976,1.559
		c0.746,0.734,1.121,1.663,1.121,2.795v1.262c0,1.432-0.765,2.573-2.3,3.424c-1.535,0.85-3.612,1.276-6.234,1.276h-5.697v8.031
		h-2.049V340.784L718.387,340.784z M732.703,346.804v-1.184c0-2.185-2.16-3.277-6.483-3.277h-5.783v7.658h5.783
		c2,0,3.583-0.291,4.743-0.874S732.703,347.77,732.703,346.804L732.703,346.804z"/>
	<path d="M753.615,340.784h2.051v12.012c0,2.184-0.823,3.938-2.469,5.264c-1.651,1.326-3.902,1.989-6.768,1.989
		c-2.863,0-5.114-0.664-6.751-1.989c-1.64-1.326-2.457-3.079-2.457-5.264v-12.012h2.02v12.012c0,1.732,0.632,3.109,1.896,4.12
		c1.265,1.012,3.027,1.52,5.293,1.52c2.285,0,4.051-0.507,5.306-1.52c1.255-1.012,1.879-2.388,1.879-4.12L753.615,340.784
		L753.615,340.784z"/>
	<path d="M759.37,340.784h8.955c2.397,0,4.238,0.342,5.521,1.021c1.278,0.681,1.92,1.782,1.92,3.306v1.072
		c0,0.914-0.337,1.688-1.009,2.324c-0.675,0.636-1.61,1.079-2.809,1.328c1.329,0.233,2.382,0.698,3.158,1.396
		c0.777,0.698,1.164,1.576,1.164,2.631v1.291c0,1.379-0.767,2.463-2.302,3.25c-1.532,0.789-3.601,1.181-6.2,1.181h-8.396v-18.801
		H759.37z M773.775,346.294v-1.049c0-1.935-1.771-2.902-5.305-2.902h-7.05v6.745h7.05c1.72,0,3.037-0.256,3.941-0.766
		C773.319,347.813,773.775,347.134,773.775,346.294L773.775,346.294z M774.306,354.944v-1.154c0-2.131-2.132-3.197-6.398-3.197
		h-6.487v7.438h6.487c1.965,0,3.522-0.285,4.673-0.859C773.733,356.599,774.306,355.858,774.306,354.944L774.306,354.944z"/>
	<path fill="#262626" d="M213.406,296.469l-20.635-76.547c-1.813-0.425-21.961-0.17-25.582-0.17c-8.06,0-17.686-0.477-25.554,0.053
		l-0.004,143.424c8.255,0.397,27.236,0.045,36.603,0.043l-0.038-67.958c0.058,0.609,2.04,6.706,2.44,8.061
		c0.871,2.948,1.691,5.691,2.519,8.599l12.599,42.93c0.332,1.148,2.022,8.12,2.831,8.367l30.092-0.013
		c0.709-3.631,13.509-45.791,15.19-51.448l4.435-14.992c0.314-1.066,0.312-1.489,0.879-2.267l0.087,68.572
		c2.02,0.372,32.456,0.317,35.938,0.077l-0.003-143.417l-50.703-0.04c-0.875,1.324-4.567,16.146-5.353,19.036
		C227.923,243.265,214.178,294.731,213.406,296.469L213.406,296.469z"/>
	<path fill="#262626" d="M54.122,219.751l-52.408,0.004c0.355,1.524,32.605,57.709,35.932,63.54
		c5.843,10.235,5.924,6.069-1.06,17.934C32.929,307.445,1.02,360.862,0,363.269l52.75-0.044l15.03-29.42
		c0.147-0.297,0.269-0.604,0.456-0.93l0.472-0.667c0.019-0.095,0.088-0.105,0.232-0.2l15.728,31.261l52.745-0.096l-36.795-62.294
		c-6.038-10.273-6.354-8.14-3.173-13.515l17.839-31.332c3.406-5.969,6.877-12.056,10.267-18.064
		c1.546-2.737,9.628-16.528,10.152-18.218H84.677c-1.748,0-1.602-0.029-2.428,1.876l-13.407,28.503
		c-1.031-1.049-6.065-12.712-7.282-15.192C61.056,233.904,55.023,220.014,54.122,219.751L54.122,219.751z"/>
	<polygon fill="#262626" points="295.264,363.272 387.987,363.183 387.873,334.74 330.169,334.722 330.077,219.744 295.265,219.751 
			"/>
	<path fill="#D4042E" d="M511.547,239.61l32.942-0.017l-0.013-19.757l-52.724,0.12l0.112,105.315l52.441-0.004
		c0.473-1.54,0.249-17.149,0.163-19.896l-32.944-0.112l0.021-19.417c1.636-0.399,22.732-0.15,26.333-0.15l-0.021-19.762
		l-26.335-0.114L511.547,239.61L511.547,239.61z"/>
	<path fill="#D4042E" d="M774.272,240.933c5.411,0.853,7.169,0.154,13.409,2.962c25.698,11.559,26.196,48.02,0.304,60.061
		c-5.156,2.397-7.7,2.164-13.626,3.035l-0.106,18.732c0.083,1.409,0.638,1.548,1.46,2.355l34.481,34.41
		c2.12,2.148,2.018,1.506,5.951,1.505l23.386-0.006c-0.574-1.092-4.098-4.172-5.204-5.354l-37.091-37.093
		c1.178-1.248,15.095-6.743,23.313-22.259c9.039-17.075,8.83-36.812-1.888-53.858c-3.153-5.02-6.739-8.588-10.724-12.051
		c-3.823-3.323-8.805-6.264-14.31-8.455c-4.312-1.716-14.065-4.286-19.317-3.552L774.272,240.933L774.272,240.933z"/>
	<path fill="#262626" d="M707.3,255.129c1.435-0.646,5.107-4.096,6.531-5.287l18.734-16.152l-18.73-16.155
		c-1.153-0.952-1.979-1.653-3.201-2.732c-0.769-0.678-2.357-2.103-3.338-2.552l-0.053,9.432c-3.403,1.409-6.009,2.127-9.171,3.775
		c-8.691,4.53-14.94,10.068-20.683,18.164c-16.102,22.7-11.945,56.567,9.377,74.347c9.765,8.146,23.897,14.714,37.85,13.584
		c-0.713-0.971-3.158-2.854-4.24-3.75c-1.562-1.295-2.939-2.463-4.363-3.731c-1.358-1.209-2.886-2.548-4.365-3.726
		c-1.47-1.176-2.813-2.503-4.216-3.562c0.58-1.012,3.767-3.365,4.823-4.312c1.332-1.191,3.979-3.177,4.805-4.277
		c-15.988-3.77-26.872-16.552-26.872-32.42c0-9.452,4.182-19.018,10.431-24.574c1.23-1.095,4.859-4.095,6.663-4.669L707.3,255.129
		L707.3,255.129z"/>
	<path fill="#D4042E" d="M722.481,219.404c0.818,1.342,15.536,13.051,16.38,14.288c-0.701,0.999-4.043,3.547-5.133,4.485
		c-1.66,1.427-3.674,2.93-5.027,4.418c1.425,0.882,11.523,1.746,19.204,11.021c9.565,11.553,11.197,26.978,2.921,39.958
		c-2.475,3.881-7.762,9.468-11.791,10.938L739,295.17c-1.591,0.809-4.887,4.042-6.535,5.402c-4.92,4.055-14.706,12.92-18.778,15.986
		c0.773,1.071,24.181,20.99,25.332,21.573l0.072-8.821c6.499-2.229,10.635-4.181,15.609-7.588
		c13.847-9.484,24.087-26.797,24.097-45.41c0.008-16.276-5.863-29.992-16.639-40.726
		C752.396,225.863,737.039,218.595,722.481,219.404L722.481,219.404z"/>
	<path fill="#D4042E" d="M603.682,239.787h26.195l0.003,85.276c1.325,0.408,17.775,0.356,19.82,0.105v-85.378l26.322-0.076
		l-0.008-19.875l-72.448,0.017L603.682,239.787L603.682,239.787z"/>
	<path fill="#D4042E" d="M436.013,239.604c10.753,0.547,17.81,4.212,23.24,9.634c4.943,4.939,9.641,12.856,9.721,23.14
		c0.143,18.387-14.732,32.914-32.839,33.126c-0.606,3.391-0.119,12.332-0.128,16.312c-0.009,4.531-0.106,3.473,2.301,5.855
		c1.469,1.455,2.696,2.716,4.164,4.17c2.252,2.232,1.396,2.521,5.582,2.502c2.775-0.012,5.561-0.048,8.331-0.046
		c5.438,0.004,10.947,0.06,16.377-0.063c-0.407-0.83-12.259-12.416-13.814-14.084l7.04-4.288
		c41.988-29.801,22.186-95.301-29.963-96.013L436.013,239.604L436.013,239.604z"/>
	<path fill="#D4042E" d="M334.829,239.514c2.423,0.46,4.779,0.352,7.362,0.937c6.198,1.403,11.793,4.646,15.938,8.785
		c12.904,12.892,12.748,34.018,0.023,46.583c-5.501,5.431-12.467,8.996-23.349,9.551l-0.007,19.768
		c5.885,1.069,17.128-2.501,21.764-4.522c17.569-7.658,31.075-26.446,30.995-48.236c-0.083-22.182-13.456-40.005-31.232-48
		c-4.738-2.13-15.482-5.231-21.53-4.438L334.829,239.514L334.829,239.514z"/>
	<path fill="#D4042E" d="M600.377,305.369c-18.354-0.109-33-14.552-32.933-32.99c0.035-10.244,4.767-18.311,9.647-23.193
		c5.161-5.159,12.801-9.149,23.314-9.574l-0.019-19.772c-16.726,0.459-29.313,7.231-37.434,15.489
		c-32.8,33.359-9.462,89.933,37.452,89.933L600.377,305.369L600.377,305.369z"/>
	<polygon fill="#D4042E" points="413.367,325.256 433.131,325.24 433.109,219.853 431.939,219.839 414.438,219.825 413.364,219.902 
			"/>
	<polygon fill="#D4042E" points="390.727,325.266 410.491,325.154 410.481,219.909 409.438,219.839 391.935,219.836 
		390.725,219.858 	"/>
</g>
</svg>
